<svg width="57" height="33" viewBox="0 0 57 33" fill="none" xmlns="http://www.w3.org/2000/svg">
<path d="M14.1495 4.39607L6.55657 8.77984L5.02939 7.89812L8.33112 5.99186L5.08316 4.11665L1.78143 6.02291L0.264998 5.1474L7.85791 0.763628L9.37434 1.63914L6.29846 3.415L9.54641 5.29021L12.6223 3.51435L14.1495 4.39607ZM16.7187 7.68011C17.2995 8.01541 17.6974 8.3859 17.9125 8.79158C18.1348 9.20139 18.1455 9.61741 17.9448 10.0396C17.7512 10.4577 17.3425 10.8469 16.7187 11.207C16.0949 11.5671 15.421 11.8031 14.6968 11.9149C13.9726 12.0266 13.2521 12.0204 12.5351 11.8962C11.8324 11.772 11.1907 11.5423 10.61 11.207C10.0292 10.8717 9.62769 10.4991 9.40542 10.0893C9.1975 9.67951 9.19033 9.26555 9.38391 8.84746C9.5775 8.42937 9.98618 8.04025 10.61 7.68011C11.2337 7.31997 11.9077 7.08402 12.6319 6.97225C13.3632 6.85634 14.0802 6.86048 14.7828 6.98467C15.4927 7.113 16.1379 7.34481 16.7187 7.68011ZM15.4066 8.43765C14.9836 8.19341 14.4745 8.07337 13.8794 8.07751C13.2915 8.07751 12.7143 8.24102 12.1479 8.56804C11.5815 8.89507 11.2947 9.23037 11.2875 9.57395C11.2875 9.91339 11.499 10.2052 11.9221 10.4495C12.3451 10.6937 12.8506 10.8158 13.4385 10.8158C14.0336 10.8117 14.6143 10.6461 15.1808 10.3191C15.7472 9.99204 16.0304 9.65881 16.0304 9.31937C16.0376 8.97579 15.8296 8.68188 15.4066 8.43765ZM23.598 11.6519C24.1788 11.9872 24.5767 12.3577 24.7918 12.7633C25.0141 13.1732 25.0248 13.5892 24.8241 14.0114C24.6305 14.4295 24.2218 14.8186 23.598 15.1788C22.9742 15.5389 22.3003 15.7749 21.5761 15.8866C20.8519 15.9984 20.1314 15.9922 19.4144 15.868C18.7117 15.7438 18.07 15.5141 17.4893 15.1788C16.9085 14.8435 16.507 14.4709 16.2847 14.0611C16.0768 13.6513 16.0696 13.2373 16.2632 12.8192C16.4568 12.4011 16.8655 12.012 17.4893 11.6519C18.1131 11.2917 18.787 11.0558 19.5112 10.944C20.2425 10.8281 20.9595 10.8323 21.6621 10.9564C22.372 11.0848 23.0173 11.3166 23.598 11.6519ZM22.2859 12.4094C21.8629 12.1652 21.3538 12.0451 20.7587 12.0493C20.1708 12.0493 19.5936 12.2128 19.0272 12.5398C18.4608 12.8668 18.174 13.2021 18.1668 13.5457C18.1668 13.8852 18.3783 14.177 18.8014 14.4212C19.2244 14.6655 19.7299 14.7876 20.3178 14.7876C20.9129 14.7834 21.4937 14.6179 22.0601 14.2908C22.6265 13.9638 22.9097 13.6306 22.9097 13.2911C22.9169 12.9476 22.7089 12.6536 22.2859 12.4094Z" fill="white"/>
<path d="M29.8428 17.7038C30.2085 18.0225 30.3554 18.3599 30.2837 18.7159C30.2264 19.0719 29.9683 19.3824 29.5094 19.6473C28.8713 20.0157 28.1507 20.1834 27.3477 20.1502C26.559 20.1171 25.7595 19.8667 24.9493 19.3989L21.6906 17.5175L29.2835 13.1337L32.4777 14.9779C33.2449 15.4208 33.6643 15.8575 33.736 16.288C33.8149 16.7227 33.5496 17.116 32.9402 17.4678C32.467 17.741 31.9543 17.8921 31.4022 17.9211C30.8573 17.9542 30.3375 17.8818 29.8428 17.7038ZM27.6165 15.8472L28.9824 16.6358C29.3624 16.8552 29.7317 16.9731 30.0902 16.9897C30.463 17.0063 30.8071 16.9235 31.1226 16.7413C31.4381 16.5592 31.5851 16.3626 31.5636 16.1514C31.5421 15.9403 31.3305 15.7189 30.929 15.487L29.5847 14.7109L27.6165 15.8472ZM25.885 18.511C26.2865 18.7428 26.6809 18.8711 27.068 18.896C27.4624 18.9167 27.8281 18.8297 28.165 18.6352C28.502 18.4406 28.649 18.2274 28.606 17.9956C28.5773 17.7638 28.3622 17.532 27.9607 17.3002L26.5303 16.4743L24.4439 17.6789L25.885 18.511ZM36.8742 19.3169C37.3761 19.6066 37.688 19.9233 37.8098 20.2669C37.9317 20.6105 37.8672 20.9416 37.6163 21.2604L38.8531 20.5463L40.3587 21.4156L34.4006 24.8556L32.8949 23.9863L34.1425 23.266C33.5904 23.4109 33.0132 23.4502 32.4109 23.384C31.8158 23.3136 31.2673 23.1335 30.7654 22.8438C30.2635 22.554 29.9337 22.2228 29.776 21.8503C29.6183 21.4777 29.6541 21.0927 29.8835 20.6953C30.1273 20.2979 30.5611 19.9192 31.1849 19.559C31.8087 19.1989 32.4611 18.9505 33.1423 18.8139C33.8377 18.6773 34.5081 18.6546 35.1534 18.7456C35.7987 18.8367 36.3723 19.0271 36.8742 19.3169ZM36.0245 20.3538C35.5513 20.0806 35.0172 19.9502 34.4221 19.9626C33.827 19.9751 33.2606 20.1365 32.7228 20.447C32.1851 20.7574 31.9054 21.0845 31.8839 21.428C31.8696 21.7675 32.099 22.0738 32.5722 22.347C33.0311 22.6119 33.5617 22.7403 34.164 22.732C34.7806 22.7237 35.3506 22.5685 35.874 22.2663C36.4046 21.96 36.6734 21.6309 36.6806 21.279C36.7021 20.9272 36.4834 20.6188 36.0245 20.3538ZM45.3681 24.2084C46.0564 24.6058 46.3791 25.0529 46.3361 25.5497C46.2931 26.0464 45.8629 26.5307 45.0455 27.0026L41.5824 29.002L40.0768 28.1327L43.3677 26.2327C43.841 25.9595 44.0847 25.678 44.0991 25.3882C44.1206 25.0943 43.9198 24.8252 43.4968 24.581C43.0666 24.3326 42.5826 24.2147 42.0449 24.2271C41.5072 24.2395 40.9766 24.3968 40.4532 24.699L37.2913 26.5245L35.7748 25.649L41.733 22.2091L43.2494 23.0846L42.0556 23.7738C42.6149 23.6331 43.1849 23.602 43.7657 23.6807C44.3608 23.7593 44.8949 23.9352 45.3681 24.2084ZM46.4013 31.7842L47.0358 29.1452L44.4331 30.6479L42.9167 29.7724L50.8753 25.1775L52.3917 26.053L47.9177 28.6361L52.3487 28.338L54.1447 29.375L48.6705 29.642L48.2511 32.8522L46.4013 31.7842Z" fill="#5CE1E6"/>
</svg>
