<svg width="40" height="23" viewBox="0 0 40 23" fill="none" xmlns="http://www.w3.org/2000/svg">
<g id="Group 481747">
<path id="Ellipse 2353" d="M29.5017 6.26425C27.611 5.17262 25.202 4.42921 22.5795 4.12803C19.9569 3.82685 17.2385 3.98143 14.7681 4.57222C12.2977 5.163 10.1863 6.16346 8.70071 7.44708C7.21515 8.7307 6.42223 10.2398 6.42223 11.7836C6.42223 13.3274 7.21514 14.8366 8.7007 16.1202C10.1863 17.4038 12.2977 18.4043 14.7681 18.995C17.2385 19.5858 19.9569 19.7404 22.5794 19.4392C25.202 19.1381 27.611 18.3946 29.5017 17.303L24.7218 14.5433C23.7764 15.0891 22.5719 15.4608 21.2607 15.6114C19.9494 15.762 18.5902 15.6847 17.355 15.3893C16.1198 15.0939 15.0641 14.5937 14.3213 13.9519C13.5785 13.3101 13.1821 12.5555 13.1821 11.7836C13.1821 11.0117 13.5785 10.2572 14.3213 9.61536C15.0641 8.97355 16.1198 8.47332 17.355 8.17792C18.5902 7.88253 19.9494 7.80524 21.2607 7.95583C22.572 8.10642 23.7764 8.47813 24.7218 9.02394L29.5017 6.26425Z" fill="white"/>
<path id="Ellipse 2355" d="M29.5017 6.26425C28.2463 5.53944 26.7559 4.96448 25.1156 4.57222C23.4754 4.17995 21.7173 3.97805 19.9419 3.97805C18.1665 3.97805 16.4084 4.17995 14.7681 4.57222C13.1279 4.96448 11.6375 5.53944 10.382 6.26425L15.162 9.02394C15.7897 8.66154 16.5349 8.37406 17.355 8.17792C18.1752 7.98179 19.0542 7.88084 19.9419 7.88084C20.8296 7.88084 21.7086 7.98179 22.5288 8.17792C23.3489 8.37406 24.0941 8.66154 24.7218 9.02394L29.5017 6.26425Z" fill="#5CE1E6"/>
<circle id="Ellipse 2354" cx="3.44961" cy="3.44961" r="3.44961" transform="matrix(0.866025 0.5 -0.866025 0.5 19.9419 8.33398)" fill="#5CE1E6"/>
<path id="Ellipse 2356" d="M22.9293 13.5084C23.3217 13.2819 23.6329 13.013 23.8452 12.7171C24.0575 12.4211 24.1668 12.1039 24.1668 11.7836C24.1668 11.4633 24.0575 11.1461 23.8452 10.8501C23.6329 10.5542 23.3217 10.2853 22.9293 10.0588C22.537 9.83229 22.0713 9.65261 21.5587 9.53003C21.0461 9.40745 20.4967 9.34435 19.9419 9.34435C19.3871 9.34435 18.8377 9.40745 18.3251 9.53003C17.8125 9.65261 17.3468 9.83229 16.9544 10.0588L19.9419 11.7836L22.9293 13.5084Z" fill="white"/>
</g>
</svg>
