<svg width="130" height="76" viewBox="0 0 130 76" fill="none" xmlns="http://www.w3.org/2000/svg">
<g filter="url(#filter0_d_1_285)">
<path d="M127.501 4.36211L128.652 5.0265L126.222 6.4298L118.629 2.04604L119.919 1.30092L126.361 5.02029L127.501 4.36211ZM121.902 6.88706C122.275 7.10232 122.515 7.3569 122.623 7.6508C122.73 7.94471 122.68 8.25932 122.472 8.59462C122.257 8.93406 121.87 9.26522 121.31 9.58811C120.751 9.91099 120.181 10.1325 119.6 10.2525C119.012 10.3767 118.464 10.4077 117.955 10.3456C117.439 10.2877 116.994 10.1511 116.621 9.93583C116.205 9.69574 115.958 9.4246 115.879 9.12241C115.793 8.82436 115.897 8.51183 116.191 8.1848C115.56 8.37522 114.947 8.44767 114.352 8.40213C113.764 8.36073 113.23 8.20136 112.75 7.92401C112.011 7.49764 111.696 7.01332 111.803 6.47104C111.918 5.9329 112.398 5.41959 113.244 4.93113C114.09 4.44266 114.979 4.16532 115.911 4.09908C116.844 4.04113 117.679 4.22534 118.417 4.65171C118.898 4.92906 119.174 5.23746 119.245 5.5769C119.324 5.92048 119.199 6.27441 118.869 6.63869C119.435 6.46897 119.98 6.40687 120.504 6.45241C121.02 6.50208 121.486 6.64697 121.902 6.88706ZM120.493 7.47694C120.106 7.25341 119.679 7.15199 119.213 7.17269C118.747 7.20166 118.295 7.34241 117.858 7.59492C117.421 7.84743 117.177 8.10822 117.127 8.37729C117.084 8.6505 117.256 8.89887 117.643 9.12241C118.03 9.34594 118.464 9.44322 118.944 9.41425C119.418 9.38941 119.869 9.2528 120.299 9.00443C120.73 8.75606 120.966 8.49527 121.009 8.22206C121.052 7.94885 120.88 7.70048 120.493 7.47694ZM117.288 5.3782C116.851 5.12569 116.36 5.01185 115.815 5.03669C115.277 5.06566 114.757 5.22504 114.255 5.5148C113.753 5.80457 113.477 6.10469 113.427 6.41515C113.384 6.72976 113.581 7.01332 114.019 7.26583C114.463 7.52248 114.951 7.62597 115.481 7.57629C116.012 7.5349 116.517 7.37553 116.998 7.09818C117.471 6.82497 117.747 6.53313 117.826 6.22266C117.905 5.9122 117.725 5.63071 117.288 5.3782ZM113.568 14.0083C113.067 14.298 112.547 14.4947 112.009 14.5981C111.478 14.7058 110.969 14.7223 110.482 14.6478C109.987 14.5774 109.55 14.4326 109.17 14.2132C108.689 13.9358 108.424 13.6254 108.374 13.2818C108.324 12.9465 108.51 12.6194 108.933 12.3007L108.879 12.2697C108.205 12.4849 107.571 12.5905 106.976 12.5863C106.381 12.5905 105.821 12.4414 105.298 12.1393C104.66 11.7708 104.352 11.3486 104.373 10.8726C104.402 10.4007 104.81 9.93702 105.599 9.48168C106.409 9.01391 107.266 8.75519 108.17 8.70551C109.08 8.65998 109.976 8.8504 110.858 9.27677L109.643 9.97842C109.17 9.75489 108.671 9.64519 108.148 9.64933C107.632 9.65761 107.148 9.79214 106.696 10.0529C106.273 10.2972 106.062 10.5476 106.062 10.8043C106.054 11.065 106.226 11.2969 106.578 11.4997C107.001 11.7439 107.488 11.835 108.04 11.7729C108.585 11.715 109.166 11.508 109.783 11.152L110.073 10.9843L111.084 11.568L110.794 11.7357C109.611 12.4021 109.424 12.9692 110.234 13.437C110.586 13.6398 110.969 13.7371 111.385 13.7288C111.801 13.7206 112.195 13.6088 112.568 13.3935C112.941 13.1783 113.138 12.932 113.16 12.6546C113.188 12.3814 113.013 12.1061 112.633 11.8288L113.837 11.1334C114.533 11.5928 114.859 12.071 114.816 12.5677C114.78 13.0686 114.364 13.5488 113.568 14.0083ZM106.107 18.316C105.605 18.6057 105.086 18.8024 104.548 18.9058C104.017 19.0135 103.508 19.03 103.021 18.9555C102.526 18.8851 102.089 18.7403 101.709 18.5209C101.228 18.2435 100.963 17.9331 100.913 17.5895C100.863 17.2542 101.049 16.9271 101.472 16.6084L101.418 16.5774C100.744 16.7926 100.11 16.8982 99.5146 16.894C98.9195 16.8982 98.3602 16.7491 97.8368 16.447C97.1987 16.0785 96.8904 15.6563 96.9119 15.1803C96.9406 14.7084 97.3493 14.2447 98.138 13.7894C98.9482 13.3216 99.805 13.0629 100.708 13.0132C101.619 12.9677 102.515 13.1581 103.397 13.5845L102.182 14.2861C101.709 14.0626 101.21 13.9529 100.687 13.957C100.171 13.9653 99.6867 14.0998 99.235 14.3606C98.8119 14.6049 98.6004 14.8553 98.6004 15.112C98.5933 15.3728 98.7653 15.6046 99.1167 15.8074C99.5397 16.0516 100.027 16.1427 100.579 16.0806C101.124 16.0227 101.705 15.8157 102.322 15.4597L102.612 15.292L103.623 15.8757L103.333 16.0434C102.15 16.7098 101.963 17.2769 102.773 17.7447C103.125 17.9475 103.508 18.0448 103.924 18.0365C104.34 18.0283 104.734 17.9165 105.107 17.7012C105.48 17.486 105.677 17.2397 105.699 16.9623C105.727 16.6891 105.552 16.4138 105.172 16.1365L106.376 15.4411C107.072 15.9005 107.398 16.3787 107.355 16.8754C107.319 17.3763 106.903 17.8565 106.107 18.316ZM91.9849 25.178L88.1024 19.6704L89.3929 18.9253L93.0926 24.377L96.8568 22.2038L97.9215 22.8185L92.9098 25.712L91.9849 25.178ZM90.2228 25.8849L91.3736 26.5493L88.943 27.9526L81.3501 23.5688L82.6407 22.8237L89.0828 26.543L90.2228 25.8849ZM80.3753 30.5396C81.3504 30.9536 82.2144 30.9432 82.9672 30.5086C83.5121 30.194 83.7021 29.8317 83.5372 29.4219C83.3795 29.0163 82.8381 28.5464 81.9132 28.0124L81.5368 27.8075C81.8164 28.0931 81.8917 28.4057 81.7627 28.7451C81.6336 29.0846 81.3253 29.395 80.8377 29.6765C80.0921 30.107 79.2855 30.3161 78.4179 30.3037C77.5503 30.2912 76.7115 30.0511 75.9013 29.5834C75.4137 29.3019 75.0731 28.9935 74.8796 28.6582C74.6931 28.327 74.6788 27.9834 74.8365 27.6274C75.0014 27.2756 75.3671 26.9361 75.9335 26.6091C77.0305 25.9758 78.1239 25.7377 79.2138 25.895C80.3036 26.0523 81.4436 26.4746 82.6338 27.1617C83.9961 27.9483 84.7955 28.6623 85.0321 29.304C85.2687 29.9456 84.8887 30.5541 83.8921 31.1295C83.1464 31.56 82.3649 31.767 81.5476 31.7504C80.723 31.738 79.9451 31.5579 79.2138 31.2102L80.3753 30.5396ZM80.2892 27.2114C79.8232 26.9423 79.2962 26.7954 78.7083 26.7706C78.1275 26.7499 77.5719 26.8927 77.0413 27.199C76.5896 27.4598 76.3637 27.7433 76.3637 28.0497C76.3566 28.3601 76.5896 28.652 77.0628 28.9252C77.5719 29.2191 78.0988 29.366 78.6438 29.366C79.1887 29.366 79.6941 29.2315 80.1602 28.9624C80.5832 28.7182 80.827 28.4326 80.8915 28.1056C80.956 27.7785 80.7553 27.4805 80.2892 27.2114ZM76.374 35.4825C75.8721 35.7723 75.3523 35.9689 74.8145 36.0724C74.284 36.18 73.7749 36.1966 73.2873 36.1221C72.7926 36.0517 72.3553 35.9068 71.9753 35.6874C71.4949 35.4101 71.2296 35.0996 71.1794 34.756C71.1292 34.4207 71.3156 34.0937 71.7386 33.7749L71.6849 33.7439C71.0109 33.9592 70.3764 34.0647 69.7813 34.0606C69.1862 34.0647 68.6269 33.9157 68.1035 33.6135C67.4654 33.2451 67.1571 32.8229 67.1786 32.3468C67.2073 31.8749 67.616 31.4113 68.4047 30.9559C69.2148 30.4882 70.0717 30.2294 70.9751 30.1798C71.8856 30.1342 72.7819 30.3246 73.6638 30.751L72.4485 31.4527C71.9753 31.2291 71.4769 31.1194 70.9535 31.1236C70.4373 31.1318 69.9533 31.2664 69.5016 31.5272C69.0786 31.7714 68.8671 32.0219 68.8671 32.2785C68.8599 32.5393 69.032 32.7711 69.3833 32.9739C69.8064 33.2182 70.2939 33.3092 70.846 33.2472C71.3909 33.1892 71.9717 32.9822 72.5883 32.6262L72.8787 32.4586L73.8896 33.0422L73.5992 33.2099C72.4162 33.8764 72.2298 34.4435 73.04 34.9112C73.3913 35.1141 73.7749 35.2114 74.1907 35.2031C74.6066 35.1948 75.0009 35.083 75.3738 34.8678C75.7466 34.6525 75.9438 34.4062 75.9653 34.1289C75.994 33.8557 75.8183 33.5804 75.4383 33.303L76.6428 32.6076C77.3383 33.0671 77.6646 33.5452 77.6215 34.0419C77.5857 34.5428 77.1698 35.023 76.374 35.4825ZM65.3167 41.8664C64.8148 42.1562 64.295 42.3528 63.7572 42.4563C63.2267 42.564 62.7176 42.5805 62.23 42.506C61.7353 42.4356 61.298 42.2907 60.9179 42.0713C60.4376 41.794 60.1723 41.4835 60.1221 41.14C60.0719 40.8046 60.2583 40.4776 60.6813 40.1589L60.6276 40.1278C59.9536 40.3431 59.3191 40.4486 58.724 40.4445C58.1289 40.4486 57.5696 40.2996 57.0462 39.9974C56.4081 39.629 56.0998 39.2068 56.1213 38.7307C56.15 38.2588 56.5587 37.7952 57.3473 37.3399C58.1575 36.8721 59.0143 36.6134 59.9178 36.5637C60.8283 36.5182 61.7246 36.7086 62.6065 37.135L61.3912 37.8366C60.9179 37.6131 60.4196 37.5034 59.8962 37.5075C59.38 37.5158 58.896 37.6503 58.4443 37.9111C58.0213 38.1553 57.8098 38.4058 57.8098 38.6624C57.8026 38.9232 57.9747 39.155 58.326 39.3579C58.7491 39.6021 59.2366 39.6932 59.7887 39.6311C60.3336 39.5731 60.9144 39.3662 61.531 39.0102L61.8214 38.8425L62.8323 39.4262L62.5419 39.5938C61.3589 40.2603 61.1725 40.8274 61.9827 41.2952C62.334 41.498 62.7176 41.5953 63.1334 41.587C63.5493 41.5787 63.9436 41.467 64.3165 41.2517C64.6893 41.0365 64.8865 40.7902 64.908 40.5128C64.9367 40.2396 64.761 39.9643 64.381 39.687L65.5855 38.9915C66.281 39.451 66.6073 39.9291 66.5642 40.4259C66.5284 40.9268 66.1125 41.407 65.3167 41.8664ZM58.3287 43.5911C58.7016 43.8063 58.9417 44.0609 59.0493 44.3548C59.1568 44.6487 59.1067 44.9633 58.8987 45.2986C58.6836 45.6381 58.2965 45.9692 57.7372 46.2921C57.178 46.615 56.6079 46.8365 56.0272 46.9565C55.4393 47.0807 54.8908 47.1118 54.3817 47.0497C53.8655 46.9917 53.4209 46.8551 53.0481 46.6398C52.6322 46.3998 52.3849 46.1286 52.306 45.8264C52.22 45.5284 52.3239 45.2158 52.6179 44.8888C51.987 45.0792 51.3739 45.1517 50.7788 45.1061C50.1909 45.0648 49.6567 44.9054 49.1764 44.628C48.4379 44.2017 48.1224 43.7173 48.2299 43.1751C48.3447 42.6369 48.825 42.1236 49.6711 41.6351C50.5171 41.1467 51.4062 40.8693 52.3383 40.8031C53.2704 40.7451 54.1057 40.9294 54.8442 41.3557C55.3245 41.6331 55.6006 41.9415 55.6723 42.2809C55.7511 42.6245 55.6257 42.9784 55.2959 43.3427C55.8623 43.173 56.4072 43.1109 56.9306 43.1564C57.4468 43.2061 57.9129 43.351 58.3287 43.5911ZM56.9198 44.181C56.5327 43.9574 56.1061 43.856 55.64 43.8767C55.174 43.9057 54.7223 44.0464 54.2849 44.2989C53.8475 44.5514 53.6038 44.8122 53.5536 45.0813C53.5106 45.3545 53.6826 45.6029 54.0698 45.8264C54.457 46.05 54.8908 46.1472 55.3711 46.1183C55.8444 46.0934 56.2961 45.9568 56.7263 45.7084C57.1564 45.4601 57.3931 45.1993 57.4361 44.9261C57.4791 44.6529 57.307 44.4045 56.9198 44.181ZM53.7149 42.0822C53.2775 41.8297 52.7864 41.7159 52.2415 41.7407C51.7037 41.7697 51.1839 41.9291 50.682 42.2188C50.1801 42.5086 49.9041 42.8087 49.8539 43.1192C49.8109 43.4338 50.0081 43.7173 50.4454 43.9698C50.89 44.2265 51.3775 44.33 51.9081 44.2803C52.4387 44.2389 52.9441 44.0795 53.4245 43.8022C53.8977 43.529 54.1738 43.2371 54.2526 42.9267C54.3315 42.6162 54.1523 42.3347 53.7149 42.0822ZM45.6826 46.6949C45.2165 46.492 44.7612 46.3906 44.3167 46.3906C43.865 46.3947 43.4456 46.5086 43.0584 46.7321C42.5135 47.0467 42.3235 47.4048 42.4884 47.8063C42.6533 48.2161 43.2018 48.6901 44.1339 49.2283L44.5103 49.4332C44.2378 49.1434 44.1661 48.8246 44.2952 48.4769C44.4242 48.1375 44.729 47.8291 45.2093 47.5517C45.955 47.1212 46.7616 46.9122 47.6292 46.9246C48.5039 46.9412 49.3428 47.1813 50.1458 47.6449C50.6334 47.9264 50.9739 48.2348 51.1675 48.5701C51.3611 48.9054 51.3754 49.2489 51.2105 49.6008C51.0528 49.9568 50.6907 50.2983 50.1243 50.6253C49.0273 51.2587 47.9375 51.4988 46.8548 51.3456C45.7722 51.2007 44.6393 50.7868 43.4563 50.1038C42.1155 49.3297 41.3053 48.6177 41.0257 47.9678C40.7389 47.322 41.0831 46.7176 42.0582 46.1546C42.811 45.72 43.614 45.5006 44.4673 45.4965C45.3205 45.5006 46.1127 45.6765 46.8441 46.0243L45.6826 46.6949ZM45.7686 50.023C46.2346 50.2921 46.758 50.437 47.3388 50.4577C47.9196 50.4867 48.4788 50.3459 49.0166 50.0355C49.4611 49.7788 49.6869 49.4953 49.6941 49.1848C49.6941 48.8785 49.4539 48.5866 48.9735 48.3093C48.4645 48.0154 47.9411 47.8663 47.4033 47.8622C46.8584 47.8622 46.3529 47.9967 45.8869 48.2658C45.6144 48.4231 45.4137 48.6011 45.2846 48.7998C45.1556 49.0068 45.1233 49.2158 45.1878 49.4269C45.2595 49.6422 45.4531 49.8409 45.7686 50.023ZM38.3215 49.5166C37.9558 50.6467 37.8052 51.6319 37.8698 52.4723C37.9343 53.3209 38.2928 53.9335 38.9452 54.3102C39.3324 54.5338 39.7375 54.6559 40.1605 54.6766C40.5764 54.7014 40.9958 54.5917 41.4189 54.3475C41.8562 54.095 42.0426 53.8218 41.9781 53.5279C41.9207 53.2381 41.6447 52.9338 41.15 52.6151L42.3438 51.9259C43.1611 52.4557 43.5591 52.9918 43.5376 53.5341C43.5089 54.0805 43.1181 54.571 42.3653 55.0057C41.6268 55.432 40.8524 55.6514 40.0422 55.6639C39.232 55.6846 38.4828 55.4962 37.7945 55.0988C37.2424 54.7801 36.8552 54.3578 36.633 53.8321C36.4035 53.3105 36.3103 52.76 36.3533 52.1804C36.4035 51.605 36.5362 51.0566 36.7513 50.535L33.1484 52.6151L32.1482 52.0376L37.4181 48.9951L38.3215 49.5166ZM33.3231 58.736L34.4738 59.4004L32.0432 60.8037L24.4503 56.4199L25.7409 55.6748L32.1831 59.3941L33.3231 58.736ZM25.9384 60.0066C24.7267 59.307 23.5616 58.8827 22.4431 58.7337C21.3317 58.5888 20.2742 58.8062 19.2704 59.3857C18.2666 59.9652 17.8938 60.5779 18.1519 61.2237C18.41 61.8694 19.1413 62.54 20.3459 63.2355C21.5432 63.9268 22.6976 64.3449 23.8089 64.4897C24.9274 64.6388 25.9886 64.4235 26.9923 63.844C27.9961 63.2644 28.3726 62.6539 28.1216 62.0122C27.8707 61.3706 27.1429 60.7021 25.9384 60.0066ZM21.5719 62.5276C20.6972 62.0226 20.1344 61.5734 19.8834 61.1802C19.6325 60.7869 19.8153 60.4123 20.4319 60.0563C21.0557 59.6962 21.7081 59.5885 22.3893 59.7334C23.0704 59.8783 23.8484 60.2033 24.7231 60.7083C25.5906 61.2092 26.1463 61.6542 26.3901 62.0433C26.6339 62.4324 26.4439 62.807 25.8201 63.1672C25.2035 63.5232 24.5546 63.6287 23.8734 63.4838C23.1995 63.3431 22.4323 63.0244 21.5719 62.5276ZM15.3981 62.7514C15.0325 63.8815 14.8819 64.8667 14.9464 65.7071C15.011 66.5557 15.3695 67.1683 16.0219 67.545C16.4091 67.7685 16.8142 67.8907 17.2372 67.9114C17.6531 67.9362 18.0725 67.8265 18.4955 67.5823C18.9329 67.3298 19.1193 67.0565 19.0548 66.7626C18.9974 66.4729 18.7214 66.1686 18.2267 65.8499L19.4204 65.1606C20.2378 65.6905 20.6357 66.2266 20.6142 66.7689C20.5856 67.3153 20.1948 67.8058 19.442 68.2405C18.7035 68.6668 17.9291 68.8862 17.1189 68.8986C16.3087 68.9193 15.5595 68.731 14.8712 68.3336C14.3191 68.0149 13.9319 67.5926 13.7096 67.0669C13.4802 66.5453 13.387 65.9948 13.43 65.4152C13.4802 64.8398 13.6128 64.2913 13.8279 63.7698L10.2251 65.8499L9.22487 65.2724L14.4947 62.2299L15.3981 62.7514ZM12.7698 69.8945C13.1427 70.1098 13.3829 70.3643 13.4904 70.6583C13.598 70.9522 13.5478 71.2668 13.3399 71.6021C13.1248 71.9415 12.7376 72.2727 12.1783 72.5956C11.6191 72.9184 11.0491 73.1399 10.4683 73.2599C9.88038 73.3841 9.33188 73.4152 8.82282 73.3531C8.30659 73.2951 7.86206 73.1585 7.48922 72.9433C7.07337 72.7032 6.82601 72.432 6.74714 72.1299C6.6611 71.8318 6.76507 71.5193 7.05903 71.1923C6.42808 71.3827 5.81506 71.4551 5.21996 71.4096C4.63202 71.3682 4.09787 71.2088 3.61749 70.9315C2.87899 70.5051 2.56351 70.0208 2.67106 69.4785C2.78578 68.9403 3.26616 68.427 4.11221 67.9386C4.95825 67.4501 5.84732 67.1728 6.77941 67.1065C7.71149 67.0486 8.54678 67.2328 9.28528 67.6592C9.76566 67.9365 10.0417 68.2449 10.1134 68.5843C10.1923 68.9279 10.0668 69.2819 9.73698 69.6461C10.3034 69.4764 10.8483 69.4143 11.3717 69.4599C11.8879 69.5095 12.354 69.6544 12.7698 69.8945ZM11.361 70.4844C10.9738 70.2609 10.5472 70.1594 10.0811 70.1801C9.6151 70.2091 9.16339 70.3499 8.72603 70.6024C8.28867 70.8549 8.04489 71.1157 7.9947 71.3847C7.95168 71.6579 8.12376 71.9063 8.51093 72.1299C8.89811 72.3534 9.33188 72.4507 9.81227 72.4217C10.2855 72.3969 10.7372 72.2603 11.1674 72.0119C11.5976 71.7635 11.8342 71.5027 11.8772 71.2295C11.9202 70.9563 11.7481 70.7079 11.361 70.4844ZM8.15602 68.3856C7.71866 68.1331 7.22752 68.0193 6.68261 68.0441C6.14487 68.0731 5.62505 68.2325 5.12316 68.5223C4.62127 68.812 4.34523 69.1121 4.29504 69.4226C4.25202 69.7372 4.44919 70.0208 4.88656 70.2733C5.33109 70.5299 5.81864 70.6334 6.34921 70.5837C6.87978 70.5423 7.38526 70.383 7.86564 70.1056C8.33886 69.8324 8.6149 69.5406 8.69377 69.2301C8.77263 68.9196 8.59339 68.6382 8.15602 68.3856Z" fill="white"/>
</g>
<defs>
<filter id="filter0_d_1_285" x="0.744002" y="0.531006" width="128.717" height="74.7618" filterUnits="userSpaceOnUse" color-interpolation-filters="sRGB">
<feFlood flood-opacity="0" result="BackgroundImageFix"/>
<feColorMatrix in="SourceAlpha" type="matrix" values="0 0 0 0 0 0 0 0 0 0 0 0 0 0 0 0 0 0 127 0" result="hardAlpha"/>
<feOffset dy="0.528947"/>
<feGaussianBlur stdDeviation="0.264474"/>
<feComposite in2="hardAlpha" operator="out"/>
<feColorMatrix type="matrix" values="0 0 0 0 0 0 0 0 0 0 0 0 0 0 0 0 0 0 0.2 0"/>
<feBlend mode="normal" in2="BackgroundImageFix" result="effect1_dropShadow_1_285"/>
<feBlend mode="normal" in="SourceGraphic" in2="effect1_dropShadow_1_285" result="shape"/>
</filter>
</defs>
</svg>
