<svg width="33" height="20" viewBox="0 0 33 20" fill="none" xmlns="http://www.w3.org/2000/svg">
<g filter="url(#filter0_d_1_287)">
<path d="M4.27337 2.4147C3.59622 2.80566 3.17996 3.17477 3.02462 3.52203C2.86927 3.86929 3.06644 4.2016 3.61613 4.51897C4.16582 4.83633 4.74141 4.95017 5.34288 4.86048C5.94834 4.77309 6.58964 4.53391 7.2668 4.14296C7.93599 3.7566 8.34626 3.38864 8.49763 3.03908C8.65298 2.69182 8.4558 2.35951 7.90611 2.04214C7.35642 1.72478 6.78084 1.61094 6.17937 1.70063C5.58188 1.78802 4.94654 2.02604 4.27337 2.4147ZM6.72906 3.83249C6.38251 4.03257 6.06584 4.1855 5.77905 4.29129C5.50022 4.39708 5.22139 4.44997 4.94256 4.44997C4.66373 4.44997 4.39287 4.37408 4.12997 4.2223C3.87106 4.07282 3.7416 3.91758 3.7416 3.7566C3.7416 3.59562 3.83123 3.43349 4.01048 3.27021C4.19769 3.10692 4.46457 2.92524 4.81111 2.72517C5.15367 2.52739 5.46437 2.37561 5.7432 2.26982C6.02601 2.16633 6.30484 2.11573 6.57968 2.11803C6.85851 2.11803 7.12738 2.19278 7.3863 2.34226C7.64919 2.49404 7.78064 2.65042 7.78064 2.81141C7.78462 2.97009 7.695 3.12992 7.51177 3.2909C7.33252 3.45418 7.07162 3.63471 6.72906 3.83249ZM11.2775 5.35466C11.4966 5.19138 11.6041 5.0304 11.6001 4.87171C11.6041 4.71303 11.4846 4.56355 11.2417 4.42327C10.9031 4.22779 10.5147 4.15535 10.0765 4.20594C9.64237 4.25883 9.14048 4.44971 8.57087 4.77858L8.35577 4.90966C8.65452 4.80617 8.98114 4.77628 9.33566 4.81997C9.69415 4.86137 10.0188 4.966 10.3096 5.13389C10.7278 5.37536 10.929 5.63638 10.913 5.91695C10.9011 6.19982 10.6701 6.47119 10.2199 6.73106C9.95705 6.88284 9.66627 6.99093 9.34761 7.05532C9.03293 7.11741 8.70431 7.12316 8.36175 7.07257C8.02715 7.02197 7.70251 6.90584 7.38784 6.72416C6.78636 6.3769 6.56131 6.02849 6.71267 5.67892C6.86802 5.33166 7.27033 4.9706 7.9196 4.59575C8.66846 4.16339 9.3496 3.90812 9.96302 3.82993C10.5844 3.75174 11.168 3.87018 11.7137 4.18524C12.116 4.41752 12.3112 4.66129 12.2992 4.91656C12.2912 5.17413 12.1239 5.4202 11.7973 5.65478L11.2775 5.35466ZM7.85985 5.26497C7.56908 5.43285 7.40775 5.62258 7.37589 5.83416C7.35199 6.04573 7.50933 6.24926 7.8479 6.44474C8.12673 6.60572 8.43145 6.68736 8.76206 6.68966C9.09666 6.68966 9.41333 6.60342 9.71207 6.43094C10.0347 6.24466 10.196 6.05493 10.196 5.86175C10.2 5.66628 10.0546 5.48345 9.75987 5.31327C9.59258 5.21668 9.39939 5.14423 9.18031 5.09594C8.96123 5.04765 8.73418 5.03615 8.49917 5.06144C8.26814 5.08444 8.05503 5.15228 7.85985 5.26497ZM17.014 5.73444L8.72677 8.62867L8.20098 8.3251L16.4822 5.42743L17.014 5.73444ZM12.079 8.90135C13.2102 9.03013 14.2021 9.08303 15.0545 9.06003C15.9109 9.03473 16.5323 8.91055 16.9186 8.68747C17.1576 8.54949 17.2871 8.40345 17.307 8.24937C17.3349 8.09529 17.2134 7.94006 16.9425 7.78367C16.6637 7.62269 16.363 7.55255 16.0403 7.57325C15.7217 7.59164 15.399 7.68593 15.0724 7.85612L14.5347 7.54565C15.0326 7.29038 15.5384 7.16619 16.0523 7.17309C16.5701 7.17769 17.0362 7.29958 17.4504 7.53875C17.8448 7.76643 18.0519 8.0079 18.0718 8.26317C18.0917 8.51844 17.9085 8.75761 17.5221 8.98069C17.2035 9.16467 16.7753 9.2923 16.2375 9.3636C15.7077 9.43489 15.1461 9.46248 14.5526 9.44639C13.967 9.43029 13.4134 9.38429 12.8916 9.3084L15.0306 10.5434L14.5825 10.8021L11.6846 9.12902L12.079 8.90135ZM17.2735 9.9203C16.5963 10.3113 16.18 10.6804 16.0247 11.0276C15.8694 11.3749 16.0665 11.7072 16.6162 12.0246C17.1659 12.3419 17.7415 12.4558 18.343 12.3661C18.9484 12.2787 19.5897 12.0395 20.2669 11.6486C20.9361 11.2622 21.3463 10.8942 21.4977 10.5447C21.6531 10.1974 21.4559 9.86511 20.9062 9.54775C20.3565 9.23038 19.7809 9.11654 19.1795 9.20623C18.582 9.29362 17.9466 9.53165 17.2735 9.9203ZM19.7291 11.3381C19.3826 11.5382 19.0659 11.6911 18.7791 11.7969C18.5003 11.9027 18.2215 11.9556 17.9426 11.9556C17.6638 11.9556 17.393 11.8797 17.1301 11.7279C16.8711 11.5784 16.7417 11.4232 16.7417 11.2622C16.7417 11.1012 16.8313 10.9391 17.0106 10.7758C17.1978 10.6125 17.4647 10.4308 17.8112 10.2308C18.1538 10.033 18.4645 9.88121 18.7433 9.77542C19.0261 9.67193 19.3049 9.62134 19.5798 9.62364C19.8586 9.62364 20.1275 9.69838 20.3864 9.84786C20.6493 9.99965 20.7807 10.156 20.7807 10.317C20.7847 10.4757 20.6951 10.6355 20.5119 10.7965C20.3326 10.9598 20.0717 11.1403 19.7291 11.3381ZM19.1392 12.9775C20.2704 13.1063 21.2622 13.1592 22.1147 13.1362C22.9711 13.1109 23.5925 12.9867 23.9788 12.7637C24.2178 12.6257 24.3473 12.4797 24.3672 12.3256C24.3951 12.1715 24.2736 12.0163 24.0027 11.8599C23.7239 11.6989 23.4232 11.6288 23.1005 11.6494C22.7819 11.6678 22.4592 11.7621 22.1326 11.9323L21.5949 11.6219C22.0928 11.3666 22.5986 11.2424 23.1125 11.2493C23.6303 11.2539 24.0963 11.3758 24.5106 11.615C24.9049 11.8426 25.1121 12.0841 25.132 12.3394C25.1519 12.5946 24.9687 12.8338 24.5823 13.0569C24.2636 13.2409 23.8354 13.3685 23.2977 13.4398C22.7679 13.5111 22.2063 13.5387 21.6128 13.5226C21.0272 13.5065 20.4736 13.4605 19.9518 13.3846L22.0908 14.6196L21.6427 14.8783L18.7448 13.2052L19.1392 12.9775ZM23.0132 14.5795L23.4673 14.3173L28.4504 13.9379L29.0359 14.2759L26.2337 15.8938L26.8551 16.2526L26.383 16.5251L25.7616 16.1663L24.7937 16.7252L24.244 16.4078L25.212 15.8489L23.0132 14.5795ZM27.8588 14.3622L24.0588 14.6381L25.7198 15.5971L27.8588 14.3622Z" fill="white" fill-opacity="0.7" shape-rendering="crispEdges"/>
</g>
<defs>
<filter id="filter0_d_1_287" x="0.118652" y="0.396729" width="31.9248" height="19.2771" filterUnits="userSpaceOnUse" color-interpolation-filters="sRGB">
<feFlood flood-opacity="0" result="BackgroundImageFix"/>
<feColorMatrix in="SourceAlpha" type="matrix" values="0 0 0 0 0 0 0 0 0 0 0 0 0 0 0 0 0 0 127 0" result="hardAlpha"/>
<feOffset dy="1"/>
<feGaussianBlur stdDeviation="0.5"/>
<feComposite in2="hardAlpha" operator="out"/>
<feColorMatrix type="matrix" values="0 0 0 0 0 0 0 0 0 0 0 0 0 0 0 0 0 0 0.15 0"/>
<feBlend mode="normal" in2="BackgroundImageFix" result="effect1_dropShadow_1_287"/>
<feBlend mode="normal" in="SourceGraphic" in2="effect1_dropShadow_1_287" result="shape"/>
</filter>
</defs>
</svg>
