<svg width="57" height="34" viewBox="0 0 57 34" fill="none" xmlns="http://www.w3.org/2000/svg">
<g filter="url(#filter0_d_1_286)">
<path d="M13.179 3.92433L6.85518 6.11829L5.8514 5.53875L8.69784 2.66178L3.71477 4.30517L2.71099 3.72564L6.51103 0.0745667L7.40727 0.592009L4.16648 3.47313L9.39332 1.73866L10.2967 2.26024L7.29255 5.27796L12.2828 3.40689L13.179 3.92433ZM13.6816 8.79282L11.545 7.55923L10.0608 7.96905L9.18607 7.46402L16.0333 5.66333L16.9726 6.20561L13.8465 10.1547L12.9718 9.6497L13.6816 8.79282ZM14.0831 8.29607L15.6103 6.4457L12.4053 7.32742L14.0831 8.29607ZM19.3145 10.3561L18.9847 13.1213L17.9881 12.5459L18.3323 10.0373L15.9877 11.391L15.1703 10.919L20.2323 7.99654L21.0497 8.46844L18.7338 9.80551L23.0572 9.62751L24.0467 10.1988L19.3145 10.3561ZM27.3847 16.4145C27.1361 16.558 26.8446 16.6574 26.51 16.7126C26.1802 16.765 25.8288 16.7581 25.456 16.6919C25.0832 16.6257 24.7199 16.4904 24.3662 16.2862C24.022 16.0875 23.7735 15.875 23.6205 15.6487C23.4723 15.4197 23.4269 15.1948 23.4843 14.974C23.5416 14.7532 23.7018 14.5531 23.9647 14.3737L24.8394 14.8788C24.6434 15.0195 24.5478 15.1823 24.5526 15.3672C24.5621 15.5549 24.7055 15.7288 24.9828 15.8888C25.2313 16.0323 25.4895 16.1041 25.7571 16.1041C26.0296 16.1068 26.271 16.0475 26.4813 15.9261C26.6629 15.8212 26.7609 15.7067 26.7753 15.5825C26.7944 15.4555 26.7633 15.33 26.682 15.2058C26.6008 15.0816 26.4741 14.9202 26.302 14.7215C26.0869 14.4814 25.9292 14.2744 25.8288 14.1005C25.7332 13.9294 25.7117 13.7487 25.7643 13.5583C25.8169 13.3678 25.9985 13.1829 26.3092 13.0036C26.5817 12.8463 26.8876 12.7469 27.227 12.7055C27.5663 12.6641 27.9153 12.6834 28.2738 12.7635C28.637 12.8407 28.9812 12.9732 29.3062 13.1609C29.8225 13.4589 30.1069 13.7666 30.1594 14.084C30.2168 14.4041 30.0662 14.6925 29.7077 14.9491L28.8258 14.44C28.9836 14.3103 29.0553 14.164 29.0409 14.0012C29.0362 13.8384 28.9071 13.6838 28.6538 13.5376C28.4243 13.4051 28.1806 13.3333 27.9224 13.3223C27.6691 13.3085 27.4325 13.3651 27.2126 13.492C27.0405 13.5914 26.9449 13.7018 26.9258 13.8232C26.9115 13.9419 26.9426 14.0619 27.019 14.1833C27.1051 14.3048 27.2317 14.4634 27.399 14.6594C27.6189 14.9022 27.7766 15.112 27.8722 15.2886C27.9774 15.4652 28.0013 15.6501 27.9439 15.8433C27.8914 16.0392 27.7049 16.2296 27.3847 16.4145ZM33.4155 15.6078L30.4113 17.3423C29.962 17.6017 29.7254 17.8515 29.7015 18.0916C29.6823 18.3344 29.852 18.5593 30.2105 18.7663C30.5642 18.9705 30.949 19.0657 31.3649 19.0519C31.7855 19.0409 32.2205 18.9057 32.6698 18.6463L35.674 16.9118L36.4913 17.3837L33.4872 19.1182C32.7941 19.5183 32.089 19.7184 31.372 19.7184C30.6598 19.7156 30.0098 19.5445 29.4218 19.2051C28.8387 18.8684 28.5471 18.4959 28.5471 18.0874C28.5519 17.6762 28.9008 17.2706 29.5939 16.8704L32.5981 15.1359L33.4155 15.6078ZM37.1933 23.634L36.3759 23.1621L37.6521 19.5855L33.9166 21.7422L33.0993 21.2703L38.154 18.3519L38.9714 18.8238L37.6808 22.4087L41.4307 20.2437L42.248 20.7156L37.1933 23.634ZM43.0151 25.7285L40.8785 24.4949L39.3943 24.9048L38.5196 24.3997L45.3668 22.599L46.3061 23.1413L43.18 27.0904L42.3053 26.5854L43.0151 25.7285ZM43.4166 25.2318L44.9438 23.3814L41.7389 24.2631L43.4166 25.2318ZM47.1639 29.3905L47.9239 27.4946L47.3431 27.1593L45.3212 28.3267L44.5039 27.8548L49.5658 24.9322L51.3511 25.963C51.9295 26.2969 52.2258 26.6308 52.2402 26.9648C52.2593 27.3014 52.037 27.6036 51.5734 27.8713C51.1766 28.1004 50.7393 28.2232 50.2613 28.2397C49.7881 28.2591 49.3053 28.168 48.813 27.9665L48.0816 29.9204L47.1639 29.3905ZM47.9239 26.824L48.8273 27.3456C49.4869 27.7264 50.1083 27.7485 50.6915 27.4118C50.9687 27.2518 51.1025 27.0807 51.093 26.8985C51.093 26.7164 50.9233 26.5273 50.5839 26.3314L49.6805 25.8098L47.9239 26.824ZM55.3853 28.2921L50.3233 31.2146L49.506 30.7427L54.5679 27.8202L55.3853 28.2921Z" fill="white"/>
</g>
<defs>
<filter id="filter0_d_1_286" x="0.398926" y="0.0373535" width="56.0509" height="33.2063" filterUnits="userSpaceOnUse" color-interpolation-filters="sRGB">
<feFlood flood-opacity="0" result="BackgroundImageFix"/>
<feColorMatrix in="SourceAlpha" type="matrix" values="0 0 0 0 0 0 0 0 0 0 0 0 0 0 0 0 0 0 127 0" result="hardAlpha"/>
<feOffset dy="1"/>
<feGaussianBlur stdDeviation="0.5"/>
<feComposite in2="hardAlpha" operator="out"/>
<feColorMatrix type="matrix" values="0 0 0 0 0 0 0 0 0 0 0 0 0 0 0 0 0 0 0.15 0"/>
<feBlend mode="normal" in2="BackgroundImageFix" result="effect1_dropShadow_1_286"/>
<feBlend mode="normal" in="SourceGraphic" in2="effect1_dropShadow_1_286" result="shape"/>
</filter>
</defs>
</svg>
